:SAMPLES-PER-SECOND 30
:FULLY-SPECIFIED
:DEGREES
16
root  -3.11978 40.9387 0.658316 -64.1998 -89.7597 64.2912
RightUpLeg  2.78943 -1.18361 -1.72842
RightLeg  -0.97959 -17.9285 -0.103741
RightFoot  -0.807298 -0.311124 3.34855
RightToes  -3.13006e-008 1.75238e-005 3.56266e-009
Spine  -1.38586 -0.365382 0.397251
Spine1  1.01322 -0.256098 -0.768138
HEad  -1.53851 -6.86876 2.85106
LeftShoulder1  0.220081 1.28228 -1.65234
LeftArm  -53.5365 -9.31774 7.19261
LeftForeArm  64.2095 3.62567 7.49813
LeftHand  -0.247722 -2.45717 3.86904
RightShoulder  0.0954513 -2.37454 -0.0875061
RightArm  -42.5692 4.69251 -0.71633
RightForeArm  32.5415 -2.18483 0.911665
RightHand  0.03899 3.37536 0.272159
LeftUpLeg  3.41284 0.505612 0.971635
LeftLeg  -1.74537 13.2909 -0.777907
LeftFoot  -1.43994 0.144328 -1.58262
LeftToes  4.78685e-008 1.46778e-008 1.34523e-009
17
root  -3.1263 40.9383 0.640744 -54.3219 -89.6905 54.453
RightUpLeg  2.75913 -1.17427 -1.72351
RightLeg  -0.972368 -18.0147 -0.12453
RightFoot  -0.811645 -0.304838 3.2593
RightToes  -3.13006e-008 1.75238e-005 3.56266e-009
Spine  -1.65756 -0.423971 0.530495
Spine1  1.37409 -0.273388 -1.01115
HEad  -1.54996 -6.54898 2.97832
LeftShoulder1  0.212334 1.31275 -1.40119
LeftArm  -53.008 -9.14806 7.14425
LeftForeArm  63.5816 3.73298 7.02034
LeftHand  -0.206478 -1.78002 3.51844
RightShoulder  0.0987181 -2.46674 -0.119283
RightArm  -42.8057 4.84841 -0.403125
RightForeArm  32.1852 -2.17268 0.752853
RightHand  0.0345931 3.12947 0.238046
LeftUpLeg  3.40047 0.475331 0.955669
LeftLeg  -1.80535 13.227 -0.779924
LeftFoot  -1.37529 0.146115 -1.61041
LeftToes  4.78685e-008 1.46778e-008 1.34523e-009
18
root  -3.13097 40.9369 0.62545 -52.3891 -89.6655 52.5693
RightUpLeg  2.6807 -1.15077 -1.71
RightLeg  -0.89626 -18.0686 -0.15533
RightFoot  -0.8378 -0.311916 3.37955
RightToes  -3.13006e-008 1.75238e-005 3.56266e-009
Spine  -1.63348 -0.469809 0.664768
Spine1  1.29365 -0.295517 -1.17411
HEad  -1.3165 -6.42516 2.85279
LeftShoulder1  0.1893 1.47999 -1.02078
LeftArm  -52.9139 -9.09672 6.72578
LeftForeArm  63.737 3.72206 7.0504
LeftHand  -0.207684 -1.55947 3.6288
RightShoulder  0.0982138 -2.47058 0.0233367
RightArm  -43.3609 5.20289 -0.375134
RightForeArm  33.186 -2.48427 0.281092
RightHand  0.0579016 3.44759 0.51601
LeftUpLeg  3.33546 0.446875 0.947597
LeftLeg  -1.77984 13.2668 -0.745829
LeftFoot  -1.39315 0.146454 -1.61566
LeftToes  4.78685e-008 1.46778e-008 1.34523e-009
19
root  -3.13611 40.9341 0.606623 -54.3974 -89.645 54.5587
RightUpLeg  2.66607 -1.16864 -1.71113
RightLeg  -0.800767 -18.0583 -0.167304
RightFoot  -0.917178 -0.308941 3.34543
RightToes  -3.13006e-008 1.75238e-005 3.56266e-009
Spine  -1.64827 -0.439115 0.706041
Spine1  1.3288 -0.254297 -1.22752
HEad  -1.18575 -6.70034 3.00178
LeftShoulder1  0.178176 1.54528 -0.73075
LeftArm  -53.2107 -9.19286 6.28523
LeftForeArm  64.7143 3.61334 7.46578
LeftHand  -0.223853 -2.13592 3.64355
RightShoulder  0.094497 -2.40767 0.190078
RightArm  -43.1479 5.0843 -0.599668
RightForeArm  32.9038 -2.37501 0.484996
RightHand  0.0645038 3.32528 0.618737
LeftUpLeg  3.37055 0.48266 0.981463
LeftLeg  -1.78688 13.1991 -0.779912
LeftFoot  -1.39286 0.148747 -1.65132
LeftToes  4.78685e-008 1.46778e-008 1.34523e-009
20
root  -3.13825 40.9323 0.588913 -74.348 -89.6766 74.5
RightUpLeg  2.57766 -1.12034 -1.67659
RightLeg  -0.632815 -18.0018 -0.264353
RightFoot  -0.933308 -0.301635 3.24532
RightToes  -3.13006e-008 1.75238e-005 3.56266e-009
Spine  -1.64513 -0.318427 0.769601
Spine1  1.38021 -0.129729 -1.25336
HEad  -1.17433 -6.70377 2.93214
LeftShoulder1  0.176682 1.59253 -0.897562
LeftArm  -53.2303 -9.36786 6.22389
LeftForeArm  64.9647 3.60346 7.47047
LeftHand  -0.229432 -2.18158 3.70975
RightShoulder  0.0844886 -2.51012 0.0539544
RightArm  -43.1329 4.95901 -0.430797
RightForeArm  32.7149 -2.16427 0.504612
RightHand  0.0628543 3.41523 0.584157
LeftUpLeg  3.40772 0.53545 1.00663
LeftLeg  -1.80906 13.2597 -0.831689
LeftFoot  -1.39441 0.147257 -1.62815
LeftToes  4.78685e-008 1.46778e-008 1.34523e-009
21
root  -3.13524 40.9291 0.576212 -95.0515 -89.6849 95.205
RightUpLeg  2.4338 -1.06124 -1.63779
RightLeg  -0.369103 -17.9471 -0.386788
RightFoot  -0.996967 -0.30107 3.25058
RightToes  -3.13006e-008 1.75238e-005 3.56266e-009
Spine  -1.65801 -0.190479 0.948659
Spine1  1.45374 0.0215039 -1.41653
HEad  -1.08536 -6.92081 2.96362
LeftShoulder1  0.164496 1.74755 -1.03292
LeftArm  -53.4085 -9.67366 5.97367
LeftForeArm  64.8057 3.58956 7.58042
LeftHand  -0.208304 -1.809 3.53125
RightShoulder  0.087883 -2.47991 0.146497
RightArm  -42.9539 4.67189 -0.593963
RightForeArm  32.5131 -1.87708 0.667134
RightHand  0.0606708 3.45113 0.551209
LeftUpLeg  3.39637 0.528697 1.00374
LeftLeg  -1.76389 13.4204 -0.804925
LeftFoot  -1.41471 0.15069 -1.68153
LeftToes  4.78685e-008 1.46778e-008 1.34523e-009
22
root  -3.13137 40.9268 0.564332 -104.034 -89.667 104.128
RightUpLeg  2.34935 -1.05482 -1.61996
RightLeg  -0.0867854 -17.8996 -0.477127
RightFoot  -1.10096 -0.29404 3.15581
RightToes  -3.13006e-008 1.75238e-005 3.56266e-009
Spine  -1.62553 -0.139249 1.10175
Spine1  1.52928 0.0958732 -1.57845
HEad  -1.06936 -6.93546 2.90099
LeftShoulder1  0.170569 1.71498 -1.22562
LeftArm  -52.9978 -9.51226 6.00573
LeftForeArm  63.7927 3.70953 7.11025
LeftHand  -0.229068 -1.86972 3.84175
RightShoulder  0.102524 -2.34139 0.420117
RightArm  -42.9038 4.59331 -0.933412
RightForeArm  32.0866 -1.80561 0.774483
RightHand  0.0406959 3.4772 0.284321
LeftUpLeg  3.45694 0.509116 0.995663
LeftLeg  -1.73703 13.4935 -0.757736
LeftFoot  -1.44585 0.154045 -1.73368
LeftToes  4.78685e-008 1.46778e-008 1.34523e-009
23
root  -3.12006 40.9261 0.551274 -115.701 -89.6747 115.716
RightUpLeg  2.31567 -0.98928 -1.54289
RightLeg  0.0753525 -17.952 -0.556954
RightFoot  -1.09385 -0.293957 3.16869
RightToes  -3.13006e-008 1.75238e-005 3.56266e-009
Spine  -1.50642 -0.106197 1.23549
Spine1  1.52005 0.138346 -1.6789
HEad  -1.12237 -6.78441 2.88392
LeftShoulder1  0.176571 1.68466 -1.42421
LeftArm  -53.2307 -9.48688 5.74233
LeftForeArm  63.3664 3.68854 7.31407
LeftHand  -0.224634 -1.67294 3.85729
RightShoulder  0.125937 -2.11978 0.747756
RightArm  -43.3709 4.58304 -1.1241
RightForeArm  31.3672 -1.61411 0.532344
RightHand  0.0186526 3.33691 0.00939182
LeftUpLeg  3.47504 0.551148 1.04243
LeftLeg  -1.65186 13.4728 -0.719576
LeftFoot  -1.45151 0.159087 -1.81207
LeftToes  4.78685e-008 1.46778e-008 1.34523e-009
24
root  -3.10115 40.9246 0.543033 -125.896 -89.647 125.798
RightUpLeg  2.29619 -0.912627 -1.47544
RightLeg  0.252963 -18.0427 -0.682164
RightFoot  -1.08491 -0.297069 3.23054
RightToes  -3.13006e-008 1.75238e-005 3.56266e-009
Spine  -1.57415 -0.160447 1.20348
Spine1  1.84982 0.0597883 -1.55772
HEad  -1.25729 -6.35062 2.73768
LeftShoulder1  0.190574 1.60025 -1.75415
LeftArm  -53.1065 -8.86211 5.37308
LeftForeArm  61.573 3.77666 7.16593
LeftHand  -0.225778 -1.6613 3.88604
RightShoulder  0.129209 -2.13926 1.19672
RightArm  -44.22 5.05545 -1.05331
RightForeArm  31.3295 -1.07934 0.114483
RightHand  0.0243511 3.84637 0.0327907
LeftUpLeg  3.56928 0.534055 1.03709
LeftLeg  -1.62525 13.567 -0.660318
LeftFoot  -1.45588 0.163616 -1.88249
LeftToes  4.78685e-008 1.46778e-008 1.34523e-009
25
root  -3.07512 40.9207 0.531416 -131 -89.6192 130.794
RightUpLeg  2.16764 -0.857233 -1.42675
RightLeg  0.667248 -18.0545 -0.861372
RightFoot  -1.19648 -0.298825 3.2703
RightToes  -3.13006e-008 1.75238e-005 3.56266e-009
Spine  -1.83165 -0.187911 0.691407
Spine1  2.55531 -0.110926 -0.707117
HEad  -1.54807 -5.78836 2.39914
LeftShoulder1  0.242662 1.21224 -2.42392
LeftArm  -52.1913 -7.17075 4.69719
LeftForeArm  55.6171 4.15103 6.14437
LeftHand  -0.191827 -0.252375 4.01834
RightShoulder  0.118365 -2.30646 1.65509
RightArm  -44.9484 5.5074 -0.960202
RightForeArm  30.2408 0.131669 -0.00422217
RightHand  0.0293193 4.56689 0.0323443
LeftUpLeg  3.56544 0.555018 1.05045
LeftLeg  -1.44566 13.5943 -0.604359
LeftFoot  -1.49603 0.165814 -1.91667
LeftToes  4.78685e-008 1.46778e-008 1.34523e-009
